<svg width="28" height="30" viewBox="0 0 28 30" fill="none" xmlns="http://www.w3.org/2000/svg">
<g clip-path="url(#clip0_406_543)">
<path d="M9.08714 23.1021C9.08714 23.2137 8.96116 23.303 8.80232 23.303C8.62156 23.3197 8.49558 23.2304 8.49558 23.1021C8.49558 22.9905 8.62156 22.9012 8.78041 22.9012C8.94473 22.8845 9.08714 22.9738 9.08714 23.1021ZM7.38365 22.851C7.34531 22.9626 7.45486 23.0909 7.61918 23.1244C7.76159 23.1802 7.92592 23.1244 7.95878 23.0128C7.99165 22.9012 7.88758 22.7729 7.72325 22.7227C7.58084 22.6836 7.42199 22.7394 7.38365 22.851ZM9.8047 22.7562C9.64585 22.7952 9.5363 22.9012 9.55273 23.0296C9.56916 23.1412 9.71158 23.2137 9.8759 23.1746C10.0347 23.1356 10.1443 23.0296 10.1279 22.918C10.1114 22.812 9.96354 22.7394 9.8047 22.7562ZM13.4089 1.37549C5.81161 1.37549 0 7.25071 0 14.9895C0 21.1772 3.82328 26.4721 9.28433 28.3357C9.98545 28.464 10.2319 28.0232 10.2319 27.6606C10.2319 27.3146 10.2155 25.4064 10.2155 24.2347C10.2155 24.2347 6.38127 25.0717 5.57608 22.572C5.57608 22.572 4.95164 20.9484 4.05334 20.5299C4.05334 20.5299 2.79899 19.654 4.14098 19.6707C4.14098 19.6707 5.50487 19.7823 6.25529 21.1102C7.45485 23.2639 9.46509 22.6446 10.2484 22.2763C10.3744 21.3836 10.7304 20.7643 11.1248 20.396C8.06286 20.0501 4.97356 19.5982 4.97356 14.2307C4.97356 12.6963 5.38984 11.9263 6.26624 10.9443C6.12383 10.5817 5.65824 9.08637 6.40866 7.15586C7.55345 6.79319 10.1881 8.66233 10.1881 8.66233C11.2836 8.34987 12.4613 8.18807 13.628 8.18807C14.7947 8.18807 15.9723 8.34987 17.0678 8.66233C17.0678 8.66233 19.7025 6.78761 20.8473 7.15586C21.5977 9.09195 21.1321 10.5817 20.9897 10.9443C21.8661 11.9319 22.4029 12.7019 22.4029 14.2307C22.4029 19.6149 19.1767 20.0445 16.1148 20.396C16.6187 20.8368 17.0459 21.6737 17.0459 22.9849C17.0459 24.8652 17.0295 27.1919 17.0295 27.6494C17.0295 28.0121 17.2815 28.4528 17.9771 28.3245C23.4546 26.4721 27.1683 21.1772 27.1683 14.9895C27.1683 7.25071 21.0061 1.37549 13.4089 1.37549ZM5.32411 20.6192C5.25291 20.675 5.26934 20.8033 5.36246 20.9093C5.4501 20.9986 5.57608 21.0377 5.64729 20.9651C5.71849 20.9093 5.70206 20.781 5.60894 20.675C5.5213 20.5857 5.39532 20.5467 5.32411 20.6192ZM4.73255 20.1673C4.6942 20.2398 4.74898 20.3291 4.85853 20.3849C4.94617 20.4407 5.05572 20.4239 5.09406 20.3458C5.1324 20.2733 5.07763 20.184 4.96808 20.1282C4.85853 20.0947 4.77089 20.1115 4.73255 20.1673ZM6.50725 22.1536C6.41961 22.2261 6.45248 22.3935 6.57846 22.4995C6.70444 22.6278 6.86329 22.6446 6.93449 22.5553C7.0057 22.4828 6.97284 22.3154 6.86329 22.2094C6.74278 22.081 6.57846 22.0643 6.50725 22.1536ZM5.88282 21.3334C5.79518 21.3892 5.79518 21.5343 5.88282 21.6626C5.97046 21.7909 6.11835 21.8467 6.18956 21.7909C6.2772 21.7184 6.2772 21.5733 6.18956 21.445C6.11287 21.3167 5.97046 21.2609 5.88282 21.3334Z" fill="white"/>
</g>
<defs>
<clipPath id="clip0_406_543">
<rect width="27.1683" height="28.5671" fill="white" transform="translate(0 0.929077)"/>
</clipPath>
</defs>
</svg>
