<svg width="25" height="31" viewBox="0 0 25 31" fill="none" xmlns="http://www.w3.org/2000/svg">
<g clip-path="url(#clip0_406_541)">
<path d="M12.2036 9.16389C8.74026 9.16389 5.9467 12.16 5.9467 15.8744C5.9467 19.5889 8.74026 22.5849 12.2036 22.5849C15.667 22.5849 18.4605 19.5889 18.4605 15.8744C18.4605 12.16 15.667 9.16389 12.2036 9.16389ZM12.2036 20.2371C9.96551 20.2371 8.13581 18.2806 8.13581 15.8744C8.13581 13.4682 9.96006 11.5117 12.2036 11.5117C14.4472 11.5117 16.2714 13.4682 16.2714 15.8744C16.2714 18.2806 14.4417 20.2371 12.2036 20.2371ZM20.1759 8.88939C20.1759 9.7596 19.5224 10.4546 18.7165 10.4546C17.9051 10.4546 17.2571 9.75376 17.2571 8.88939C17.2571 8.02503 17.9105 7.32419 18.7165 7.32419C19.5224 7.32419 20.1759 8.02503 20.1759 8.88939ZM24.3199 10.478C24.2274 8.38129 23.7808 6.52406 22.3487 4.9939C20.9219 3.46374 19.1902 2.98483 17.2353 2.8797C15.2204 2.75706 9.18135 2.75706 7.1665 2.8797C5.217 2.97899 3.48532 3.4579 2.05314 4.98806C0.620969 6.51822 0.179881 8.37544 0.0818609 10.4721C-0.0324953 12.633 -0.0324953 19.1099 0.0818609 21.2709C0.174435 23.3675 0.620969 25.2248 2.05314 26.7549C3.48532 28.2851 5.21155 28.764 7.1665 28.8691C9.18135 28.9918 15.2204 28.9918 17.2353 28.8691C19.1902 28.7698 20.9219 28.2909 22.3487 26.7549C23.7754 25.2248 24.2219 23.3675 24.3199 21.2709C24.4343 19.1099 24.4343 12.6389 24.3199 10.478ZM21.717 23.5895C21.2922 24.7342 20.4699 25.6161 19.3972 26.0775C17.7907 26.7608 13.9789 26.6031 12.2036 26.6031C10.4284 26.6031 6.61106 26.7549 5.01007 26.0775C3.94274 25.6219 3.12047 24.74 2.69027 23.5895C2.05314 21.8666 2.20017 17.7784 2.20017 15.8744C2.20017 13.9705 2.05859 9.87641 2.69027 8.15935C3.11502 7.01465 3.9373 6.13276 5.01007 5.67138C6.6165 4.98806 10.4284 5.14575 12.2036 5.14575C13.9789 5.14575 17.7962 4.9939 19.3972 5.67138C20.4645 6.12692 21.2868 7.00881 21.717 8.15935C22.3541 9.88225 22.2071 13.9705 22.2071 15.8744C22.2071 17.7784 22.3541 21.8724 21.717 23.5895Z" fill="white"/>
</g>
<defs>
<clipPath id="clip0_406_541">
<rect width="24.396" height="29.9024" fill="white" transform="translate(0 0.929077)"/>
</clipPath>
</defs>
</svg>
