<svg width="25" height="30" viewBox="0 0 25 30" fill="none" xmlns="http://www.w3.org/2000/svg">
<g clip-path="url(#clip0_406_545)">
<path d="M5.52285 25.9257H0.40755V9.23739H5.52285V25.9257ZM2.96244 6.96095C1.32674 6.96095 0 5.58839 0 3.93127C1.17077e-08 3.1353 0.312114 2.37193 0.86768 1.80909C1.42325 1.24625 2.17676 0.930054 2.96244 0.930054C3.74813 0.930054 4.50164 1.24625 5.05721 1.80909C5.61277 2.37193 5.92489 3.1353 5.92489 3.93127C5.92489 5.58839 4.5976 6.96095 2.96244 6.96095ZM24.6678 25.9257H19.5635V17.8019C19.5635 15.8658 19.5249 13.383 16.9039 13.383C14.2444 13.383 13.8369 15.4864 13.8369 17.6624V25.9257H8.72707V9.23739H13.6331V11.5138H13.7047C14.3876 10.2026 16.0558 8.81892 18.5446 8.81892C23.7216 8.81892 24.6733 12.2726 24.6733 16.7586V25.9257H24.6678Z" fill="white"/>
</g>
<defs>
<clipPath id="clip0_406_545">
<rect width="24.6733" height="28.5671" fill="white" transform="translate(0 0.929077)"/>
</clipPath>
</defs>
</svg>
