<svg width="32" height="30" viewBox="0 0 32 30" fill="none" xmlns="http://www.w3.org/2000/svg">
<path d="M29.7687 7.49615C29.9708 6.79872 29.7687 6.2854 28.7965 6.2854H25.5793C24.76 6.2854 24.3831 6.72618 24.181 7.21718C24.181 7.21718 22.5423 11.2958 20.2264 13.9405C19.4781 14.7049 19.134 14.9504 18.7243 14.9504C18.5222 14.9504 18.2109 14.7049 18.2109 14.0074V7.49615C18.2109 6.65923 17.9815 6.2854 17.3042 6.2854H12.2462C11.7328 6.2854 11.4269 6.67597 11.4269 7.03863C11.4269 7.83092 12.5849 8.01505 12.7051 10.2469V15.0899C12.7051 16.15 12.5193 16.3453 12.1097 16.3453C11.0173 16.3453 8.36267 12.2499 6.78958 7.56311C6.47277 6.65365 6.16143 6.2854 5.33665 6.2854H2.11946C1.20183 6.2854 1.01611 6.72618 1.01611 7.21718C1.01611 8.08758 2.10854 12.4117 6.10135 18.1251C8.7614 22.0252 12.5084 24.1398 15.9168 24.1398C17.9651 24.1398 18.2163 23.6712 18.2163 22.8621C18.2163 19.135 18.0306 18.7835 19.0575 18.7835C19.5327 18.7835 20.352 19.029 22.2638 20.9093C24.4486 23.1411 24.8091 24.1398 26.0326 24.1398H29.2498C30.1675 24.1398 30.6317 23.6712 30.3641 22.745C29.7523 20.7977 25.6175 16.7916 25.4318 16.5238C24.9566 15.8989 25.0931 15.6199 25.4318 15.062C25.4373 15.0564 29.3645 9.40993 29.7687 7.49615Z" fill="white"/>
</svg>
